<svg class="icon" viewBox="0 0 1024 1024" xmlns="http://www.w3.org/2000/svg" width="200" height="200"><defs><style>@font-face{font-family:feedback-iconfont;src:url(//at.alicdn.com/t/font_1031158_u69w8yhxdu.woff2?t=1630033759944) format(&quot;woff2&quot;),url(//at.alicdn.com/t/font_1031158_u69w8yhxdu.woff?t=1630033759944) format(&quot;woff&quot;),url(//at.alicdn.com/t/font_1031158_u69w8yhxdu.ttf?t=1630033759944) format(&quot;truetype&quot;)}</style></defs><path d="M512.085 1023.999a315.647 315.647 0 0 1-224.625-93.013L93.014 736.568A315.448 315.448 0 0 1 .001 512a315.448 315.448 0 0 1 93.013-224.568L287.46 93.015A315.562 315.562 0 0 1 512.085 0a315.448 315.448 0 0 1 224.569 93.014l194.445 194.417c123.876 123.818 123.876 325.318 0 449.136l-194.445 194.39a315.477 315.477 0 0 1-224.569 93.04zm0-938.664a230.883 230.883 0 0 0-164.266 68.01L153.373 347.762A230.798 230.798 0 0 0 85.334 512a230.684 230.684 0 0 0 68.04 164.21l194.445 194.417a230.855 230.855 0 0 0 164.266 68.039c62.037 0 120.377-24.178 164.238-68.01l194.446-194.418c90.538-90.567 90.538-237.909 0-328.476L676.323 153.373a230.684 230.684 0 0 0-164.238-68.038z"/><path d="M668.444 455.111h-128v-128a42.667 42.667 0 1 0-85.333 0v128h-128a42.667 42.667 0 0 0 0 85.334h128v128a42.667 42.667 0 1 0 85.333 0v-128h128a42.667 42.667 0 0 0 0-85.334z"/></svg>