<svg class="icon" viewBox="0 0 1024 1024" xmlns="http://www.w3.org/2000/svg" width="200" height="200"><defs><style>@font-face{font-family:feedback-iconfont;src:url(//at.alicdn.com/t/font_1031158_u69w8yhxdu.woff2?t=1630033759944) format(&quot;woff2&quot;),url(//at.alicdn.com/t/font_1031158_u69w8yhxdu.woff?t=1630033759944) format(&quot;woff&quot;),url(//at.alicdn.com/t/font_1031158_u69w8yhxdu.ttf?t=1630033759944) format(&quot;truetype&quot;)}</style></defs><path d="M437.333 85.333h-320c-17.066 0-32 14.934-32 32v320c0 17.067 14.934 32 32 32h320c17.067 0 32-14.933 32-32v-320c0-17.066-14.933-32-32-32zm-32 320h-256v-256h256v256zm32 149.334h-320c-17.066 0-32 14.933-32 32v320c0 17.066 14.934 32 32 32h320c17.067 0 32-14.934 32-32v-320c0-17.067-14.933-32-32-32zm-32 320h-256v-256h256v256zm501.334-320h-320c-17.067 0-32 14.933-32 32v320c0 17.066 14.933 32 32 32h320c17.066 0 32-14.934 32-32v-320c0-17.067-14.934-32-32-32zm-32 320h-256v-256h256v256zm-288-565.334h128v128c0 17.067 14.933 32 32 32s32-14.933 32-32v-128h128c17.066 0 32-14.933 32-32s-14.934-32-32-32h-128v-128c0-17.066-14.934-32-32-32s-32 14.934-32 32v128h-128c-17.067 0-32 14.934-32 32s14.933 32 32 32z"/></svg>