<svg class="icon" viewBox="0 0 1024 1024" xmlns="http://www.w3.org/2000/svg" width="200" height="200"><defs><style>@font-face{font-family:feedback-iconfont;src:url(//at.alicdn.com/t/font_1031158_u69w8yhxdu.woff2?t=1630033759944) format(&quot;woff2&quot;),url(//at.alicdn.com/t/font_1031158_u69w8yhxdu.woff?t=1630033759944) format(&quot;woff&quot;),url(//at.alicdn.com/t/font_1031158_u69w8yhxdu.ttf?t=1630033759944) format(&quot;truetype&quot;)}</style></defs><path d="M394.783 105.931c-114.7 0-207.231 95.457-207.231 212.669 0 117.212 92.53 212.669 207.231 212.669s207.231-95.457 207.231-212.67c0-117.211-92.53-212.668-207.23-212.668zm0 354.717c-75.197 0-136.61-63.355-136.61-142.048 0-78.693 61.413-142.048 136.61-142.048 75.198 0 136.61 63.355 136.61 142.048 0 78.693-61.412 142.048-136.61 142.048zM.101 876.53c-1.54 20.486 14.667 37.956 35.211 37.956h718.942c20.545 0 36.752-17.472 35.211-37.958-13.444-178.789-133.795-319.139-282.524-319.139H282.626c-148.804 0-269.088 140.324-282.525 319.14zm506.84-248.52c107.834 0 201.204 108.886 212.102 253.813l35.211-37.958H35.312l35.211 37.956C81.416 736.864 174.724 628.01 282.626 628.01h224.315zm481.75-362.663c19.502 0 35.311-15.809 35.311-35.31 0-19.501-15.809-35.31-35.31-35.31H730.81c-19.501 0-35.31 15.809-35.31 35.31 0 19.501 15.809 35.31 35.31 35.31h257.882zm0 194.207c19.502 0 35.311-15.809 35.311-35.31 0-19.502-15.809-35.31-35.31-35.31h-273.51c-19.502 0-35.311 15.808-35.311 35.31 0 19.501 15.809 35.31 35.31 35.31h273.51zm0 194.207c19.502 0 35.311-15.809 35.311-35.31 0-19.502-15.809-35.31-35.31-35.31H777.698c-19.501 0-35.31 15.808-35.31 35.31 0 19.501 15.809 35.31 35.31 35.31h210.994z"/></svg>