<svg class="icon" viewBox="0 0 1024 1024" xmlns="http://www.w3.org/2000/svg" width="200" height="200"><defs><style>@font-face{font-family:feedback-iconfont;src:url(//at.alicdn.com/t/font_1031158_u69w8yhxdu.woff2?t=1630033759944) format(&quot;woff2&quot;),url(//at.alicdn.com/t/font_1031158_u69w8yhxdu.woff?t=1630033759944) format(&quot;woff&quot;),url(//at.alicdn.com/t/font_1031158_u69w8yhxdu.ttf?t=1630033759944) format(&quot;truetype&quot;)}</style></defs><path d="M512 63.792C264.463 63.792 63.792 264.463 63.792 512S264.463 960.208 512 960.208 960.208 759.537 960.208 512 759.536 63.792 512 63.792zm0 842.631c-217.83 0-394.423-176.594-394.423-394.423S294.17 117.577 512 117.577 906.423 294.17 906.423 512 729.83 906.423 512 906.423zM368.573 494.072c29.708 0 53.785-42.006 53.785-71.714s-24.077-71.713-53.785-71.713c-29.707 0-53.785 42.006-53.785 71.713s24.078 71.714 53.785 71.714zm286.854 0c29.707 0 53.785-42.006 53.785-71.714s-24.078-71.713-53.785-71.713c-29.708 0-53.785 42.006-53.785 71.713s24.077 71.714 53.785 71.714zm35.856 125.498c-8.695-3.765-20.904-4.715-32.79-4.428-32.45 46.004-85.913 76.141-146.493 76.141-61.727 0-116.14-31.195-148.393-78.67-10.075.215-20.779 1.9-30.89 6.957-11.6 5.81-15.633 13.984-18.143 21.03C355.79 711.65 428.688 762.997 512 762.997c84.765 0 158.737-53.158 199.524-126.144-5.128-7.082-11.617-13.536-20.24-17.283z"/></svg>