<svg class="icon" viewBox="0 0 1024 1024" xmlns="http://www.w3.org/2000/svg" width="200" height="200"><defs><style>@font-face{font-family:feedback-iconfont;src:url(//at.alicdn.com/t/font_1031158_u69w8yhxdu.woff2?t=1630033759944) format(&quot;woff2&quot;),url(//at.alicdn.com/t/font_1031158_u69w8yhxdu.woff?t=1630033759944) format(&quot;woff&quot;),url(//at.alicdn.com/t/font_1031158_u69w8yhxdu.ttf?t=1630033759944) format(&quot;truetype&quot;)}</style></defs><path d="M797.3 668.3h-17.8v-37.1c0-42.5-43.2-66-84.9-66h-1v-51.9h-415V617h328.9v51.9h-329v103.8H486v.8c0 28.5 22.8 67.1 51.4 67.1h70v87.7H226.7c-28.7 0-51.9-23.2-51.9-51.9V358.2h259.3v-.6h.1V98.2h311.3c28.7 0 51.9 23.2 51.9 51.9v518.2zm-415-570.1v207.5H174.8L382.3 98.2zm428.8 635.7c21 0 38.1 17.1 38.1 38.2v1.6c0 21-17.1 38.2-38.1 38.2h-78.6v78.3c0 21-17.1 38.2-38.1 38.2h-1.2c-21 .2-38.3-16.6-38.5-37.7v-78.8h-78.2c-21.2.1-38.4-17.1-38.5-38.3v-1.3c.3-21.1 17.4-38 38.5-38.2h78.2v-78.7c0-21.1 17.1-38.2 38.5-38.2h1.2c21 0 38.1 17.1 38.1 38.2V734l78.6-.1z"/></svg>